<svg width="407" height="514" viewBox="0 0 407 514" fill="none" xmlns="http://www.w3.org/2000/svg">
<g clip-path="url(#clip0_102_151)">
<path d="M22.3707 469.03L4.21777 458.553L22.3707 448.076L40.5135 458.553L22.3707 469.03Z" fill="#D6D8E5"/>
<path d="M22.3707 489.984L4.21777 479.507V458.553L22.3707 469.03V489.984Z" fill="#B1B6C4"/>
<path d="M40.5221 479.507L22.3691 489.984V469.03L40.5221 458.553V479.507Z" fill="#C4C7D6"/>
<path d="M46.7622 472.96C48.332 473.397 50.011 473.194 51.4313 472.396C52.5601 472.396 58.6761 469.82 59.5073 472.016C60.2359 473.935 57.5884 475.721 56.1722 476.059C53.0937 476.808 50.7951 478.348 49.5534 478.614C49.0805 478.784 48.5733 478.835 48.0761 478.764C47.5788 478.692 47.1066 478.5 46.7007 478.204C45.8182 477.28 45.9003 474.058 46.7622 472.96Z" fill="#38226D"/>
<path d="M49.5528 478.03C50.7944 477.763 53.0828 476.224 56.1716 475.474C57.3517 475.187 59.3938 473.894 59.599 472.345C59.8761 474.12 57.4851 475.69 56.1716 476.008C53.0931 476.757 50.7944 478.296 49.5528 478.563C49.0799 478.733 48.5726 478.784 48.0754 478.712C47.5781 478.641 47.1059 478.449 46.7 478.153C46.5044 477.946 46.3664 477.691 46.2998 477.414C46.7564 477.763 47.2884 478.001 47.8532 478.108C48.4181 478.215 49.0001 478.188 49.5528 478.03Z" fill="#9C73FF"/>
<path d="M35.741 467.039C37.3107 467.476 38.9897 467.273 40.4101 466.475C41.5389 466.475 47.5933 463.899 48.4758 466.095C49.2044 468.014 46.5568 469.8 45.151 470.138C42.0725 470.887 39.7738 472.427 38.5322 472.693C38.0593 472.863 37.5521 472.914 37.0548 472.843C36.5575 472.771 36.0853 472.579 35.6794 472.283C34.7969 471.411 34.8893 468.189 35.741 467.039Z" fill="#38226D"/>
<path d="M38.5313 472.16C39.7729 471.893 42.0613 470.354 45.1501 469.605C46.3302 469.317 48.3723 468.024 48.5775 466.475C48.8546 468.25 46.4636 469.82 45.1501 470.138C42.0716 470.887 39.7729 472.427 38.5313 472.693C38.0584 472.863 37.5512 472.914 37.0539 472.843C36.5566 472.771 36.0844 472.579 35.6785 472.283C35.4852 472.078 35.3474 471.827 35.2783 471.554C35.7365 471.901 36.2689 472.135 36.8334 472.24C37.398 472.346 37.9792 472.318 38.5313 472.16Z" fill="#9C73FF"/>
<path d="M18.5732 459.435C23.3449 461.488 27.8087 461.857 31.5132 459.887L35.31 457.691C35.5358 462.596 35.7513 467.306 35.7513 467.306C35.7513 467.306 38.6656 469.512 40.8822 467.542C40.8822 467.542 41.3542 460.667 41.8365 453.894L45.818 451.595C45.7221 451.957 45.6704 452.329 45.6641 452.704C45.6641 453.986 46.5877 473.104 46.5877 473.104C46.5877 473.104 49.5225 474.848 51.7904 472.888C51.7904 472.888 53.3193 450.733 53.6682 447.234C54.0582 443.253 49.6457 441.293 46.8442 442.309L42.5753 443.899L42.7806 441.436C43.1808 437.455 38.758 435.495 35.9668 436.511C33.4219 437.444 16.2233 443.889 16.2233 443.889C16.3303 445.544 16.5324 447.192 16.8287 448.825L10.0355 448.25C9.67629 454.602 13.8118 457.342 18.5732 459.435ZM30.4357 448.424L34.9817 445.808C34.9059 446.128 34.8578 446.454 34.838 446.783L30.4357 448.424Z" fill="#8C50FF"/>
<path d="M6.36182 428.835C6.36182 428.835 6.91595 437.28 8.02421 438.501C9.13248 439.723 12.8883 440.554 12.8883 440.554L15.7718 445.254C15.7718 445.254 13.1345 430.189 12.5599 429.861C11.9852 429.533 6.36182 428.835 6.36182 428.835Z" fill="#FFCEA9"/>
<path d="M11.913 419.445C11.2137 419.119 10.4194 419.059 9.67886 419.276C8.93833 419.493 8.30245 419.973 7.8904 420.625C6.86423 422.38 5.72518 428.424 5.62256 429.451C6.04907 430.027 6.61408 430.486 7.26523 430.785C7.91639 431.085 8.63261 431.215 9.34756 431.164L11.913 419.445Z" fill="#EDEDED"/>
<path d="M12.9278 419.599C14.3849 419.671 15.4727 420.041 15.6574 419.599C15.8138 418.847 15.9235 418.087 15.9858 417.321C15.8216 416.89 15.6779 416.439 15.6779 416.439C13.8411 415.31 13.2664 413.36 13.0201 411.021C12.6097 407.07 14.7441 403.622 18.6846 403.211C22.3993 402.821 25.1289 405.428 25.8678 409.009C26.2577 410.774 27.0376 414.14 25.9807 417.024C25.3957 418.645 24.6364 419.938 23.9283 420.184C23.1932 420.169 22.4597 420.107 21.7323 420C21.7323 420 21.5373 421.098 21.4039 421.795C21.2705 422.493 21.3116 422.873 22.7174 423.735C24.1233 424.597 20.6035 426.372 18.3049 426.198C16.0063 426.023 13.4203 424.638 12.7123 423.119C11.8605 421.457 11.9221 419.507 12.9278 419.599Z" fill="#FFCEA9"/>
<path d="M49.9328 445.408C49.932 445.616 49.8766 445.82 49.7722 446C49.6677 446.18 49.5179 446.33 49.3376 446.434L38.2037 452.858C38.0231 452.963 37.8177 453.019 37.6085 453.019C37.3993 453.019 37.1939 452.963 37.0133 452.858L21.4155 443.848C21.2338 443.745 21.0828 443.596 20.9782 443.416C20.8736 443.235 20.8191 443.03 20.8203 442.822V442.74L49.9328 445.408Z" fill="#E5E5E5"/>
<path d="M49.337 446.434L38.2031 452.858C38.0238 452.967 37.8177 453.023 37.6079 453.022V445.408H49.922C49.9222 445.615 49.8683 445.818 49.7658 445.998C49.6632 446.178 49.5154 446.328 49.337 446.434Z" fill="#E5E5E5"/>
<path d="M38.0297 452.273C37.904 452.348 37.7604 452.387 37.6141 452.387C37.4678 452.387 37.3241 452.348 37.1985 452.273L20.9747 442.914C20.7695 442.791 20.7695 442.596 20.9747 442.483L32.9194 435.577L49.9333 445.408L38.0297 452.273Z" fill="#F4F4F4"/>
<path d="M27.6338 445.408L27.7159 445.449L32.9186 448.455L35.7713 446.803L35.8534 446.762L30.5686 443.714L27.6338 445.408Z" fill="#BFBFBF"/>
<path d="M27.7207 445.451L32.9234 448.458L35.7761 446.806L30.5735 443.809L27.7207 445.451Z" fill="#E5E5E5"/>
<path d="M45.5204 445.89L46.2695 446.321C46.3057 446.341 46.3463 446.351 46.3876 446.351C46.4288 446.351 46.4694 446.341 46.5056 446.321L47.2239 445.91C47.2957 445.91 47.306 445.808 47.2239 445.777L46.4748 445.336C46.4379 445.318 46.3976 445.309 46.3568 445.309C46.316 445.309 46.2757 445.318 46.2388 445.336L45.5204 445.756C45.4691 445.797 45.4589 445.859 45.5204 445.89Z" fill="#3A2C6D"/>
<path d="M44.4623 445.254L45.2114 445.685C45.2476 445.704 45.2882 445.715 45.3295 445.715C45.3707 445.715 45.4113 445.704 45.4475 445.685L46.1658 445.274C46.2376 445.274 46.2376 445.172 46.1658 445.141L45.4167 444.71C45.3805 444.69 45.3399 444.68 45.2987 444.68C45.2574 444.68 45.2169 444.69 45.1807 444.71L44.4623 445.12C44.411 445.182 44.4008 445.254 44.4623 445.254Z" fill="#3A2C6D"/>
<path d="M43.3959 444.669L44.145 445.1C44.1837 445.117 44.2257 445.126 44.2682 445.126C44.3107 445.126 44.3526 445.117 44.3913 445.1L45.0994 444.689C45.1712 444.689 45.1815 444.587 45.0994 444.546L44.3503 444.115C44.3141 444.095 44.2735 444.084 44.2323 444.084C44.191 444.084 44.1504 444.095 44.1143 444.115L43.3959 444.525C43.3446 444.566 43.3344 444.628 43.3959 444.669Z" fill="#3A2C6D"/>
<path d="M42.3393 444.053L43.0884 444.484C43.1253 444.501 43.1656 444.51 43.2064 444.51C43.2472 444.51 43.2875 444.501 43.3244 444.484L44.0427 444.074C44.1146 444.074 44.1248 443.971 44.0427 443.93L43.2936 443.499C43.255 443.481 43.213 443.472 43.1705 443.472C43.128 443.472 43.086 443.481 43.0474 443.499L42.3393 443.909C42.288 443.95 42.2777 444.012 42.3393 444.053Z" fill="#3A2C6D"/>
<path d="M41.2719 443.437L42.0313 443.868C42.0675 443.888 42.108 443.898 42.1493 443.898C42.1905 443.898 42.2311 443.888 42.2673 443.868L42.9754 443.458C43.0472 443.458 43.0574 443.355 42.9754 443.324L42.2262 442.883C42.1893 442.866 42.149 442.857 42.1082 442.857C42.0674 442.857 42.0271 442.866 41.9902 442.883L41.2719 443.304C41.2206 443.345 41.2103 443.407 41.2719 443.437Z" fill="#3A2C6D"/>
<path d="M40.2153 442.822L40.9644 443.263C41.0013 443.28 41.0416 443.289 41.0824 443.289C41.1232 443.289 41.1635 443.28 41.2004 443.263L41.9187 442.842C41.9905 442.842 42.0008 442.739 41.9187 442.709L41.1696 442.278C41.1316 442.258 41.0893 442.248 41.0465 442.248C41.0036 442.248 40.9614 442.258 40.9233 442.278L40.2153 442.688C40.164 442.729 40.1537 442.791 40.2153 442.822Z" fill="#3A2C6D"/>
<path d="M39.158 442.175L39.9071 442.606C39.944 442.623 39.9843 442.632 40.0251 442.632C40.0659 442.632 40.1062 442.623 40.1431 442.606L40.8614 442.196C40.9333 442.196 40.9333 442.093 40.8614 442.052L40.1123 441.621C40.0754 441.604 40.0351 441.595 39.9943 441.595C39.9535 441.595 39.9132 441.604 39.8763 441.621L39.158 442.031C39.0964 442.114 39.0964 442.175 39.158 442.175Z" fill="#3A2C6D"/>
<path d="M38.0908 441.6L38.8399 442.031C38.8761 442.051 38.9166 442.062 38.9579 442.062C38.9991 442.062 39.0397 442.051 39.0759 442.031L39.7942 441.621C39.866 441.621 39.8763 441.518 39.7942 441.488L39.0451 441.046C39.0082 441.029 38.9679 441.02 38.9271 441.02C38.8863 441.02 38.846 441.029 38.8091 441.046L38.0908 441.467C38.0394 441.508 38.0292 441.57 38.0908 441.6Z" fill="#3A2C6D"/>
<path d="M37.033 440.985L37.7821 441.416C37.8183 441.436 37.8589 441.446 37.9001 441.446C37.9414 441.446 37.9819 441.436 38.0181 441.416L38.7365 441.005C38.8083 441.005 38.8083 440.903 38.7365 440.872L37.9668 440.431C37.9306 440.411 37.8901 440.401 37.8488 440.401C37.8076 440.401 37.767 440.411 37.7308 440.431L37.0125 440.841C36.9407 440.892 36.9407 440.954 37.033 440.985Z" fill="#3A2C6D"/>
<path d="M35.9669 440.379L36.716 440.81C36.7547 440.828 36.7967 440.837 36.8391 440.837C36.8816 440.837 36.9236 440.828 36.9623 440.81L37.6703 440.4C37.7422 440.4 37.7524 440.297 37.6703 440.256L36.9418 439.815C36.9056 439.795 36.865 439.785 36.8238 439.785C36.7825 439.785 36.7419 439.795 36.7057 439.815L35.9874 440.225C35.9156 440.277 35.9156 440.338 35.9669 440.379Z" fill="#3A2C6D"/>
<path d="M34.8892 439.764L35.6383 440.195C35.6752 440.212 35.7155 440.221 35.7563 440.221C35.7971 440.221 35.8374 440.212 35.8743 440.195L36.5926 439.784C36.6644 439.784 36.6747 439.682 36.5926 439.64L35.9153 439.199C35.8767 439.182 35.8347 439.173 35.7922 439.173C35.7497 439.173 35.7077 439.182 35.669 439.199L34.961 439.61C34.8892 439.661 34.8892 439.723 34.8892 439.764Z" fill="#3A2C6D"/>
<path d="M33.8622 439.148L34.6216 439.579C34.6578 439.599 34.6984 439.609 34.7396 439.609C34.7808 439.609 34.8214 439.599 34.8576 439.579L35.5759 439.168C35.6375 439.168 35.6478 439.066 35.5759 439.035L34.8268 438.594C34.7899 438.576 34.7496 438.567 34.7088 438.567C34.668 438.567 34.6277 438.576 34.5908 438.594L33.8725 439.015C33.7904 439.097 33.7904 439.097 33.8622 439.148Z" fill="#3A2C6D"/>
<path d="M32.8372 438.532L33.5863 438.973C33.6232 438.991 33.6635 439 33.7043 439C33.7451 439 33.7854 438.991 33.8223 438.973L34.5406 438.553C34.6125 438.553 34.6227 438.45 34.5406 438.419L33.7915 437.988C33.7535 437.969 33.7113 437.958 33.6684 437.958C33.6255 437.958 33.5833 437.969 33.5453 437.988L32.8372 438.399C32.7346 438.44 32.7243 438.501 32.8372 438.532Z" fill="#3A2C6D"/>
<path d="M31.2153 437.629L32.4775 438.358C32.5144 438.375 32.5547 438.384 32.5955 438.384C32.6363 438.384 32.6766 438.375 32.7135 438.358L33.4318 437.947C33.5037 437.947 33.5037 437.845 33.4318 437.804L32.1799 437.044C32.143 437.027 32.1027 437.018 32.0619 437.018C32.0211 437.018 31.9808 437.027 31.9439 437.044L31.2256 437.465C31.2148 437.464 31.204 437.466 31.1938 437.469C31.1835 437.473 31.1741 437.478 31.166 437.485C31.1579 437.493 31.1513 437.501 31.1466 437.511C31.1418 437.521 31.139 437.531 31.1383 437.542C31.1377 437.553 31.1391 437.564 31.1426 437.574C31.1461 437.584 31.1516 437.593 31.1588 437.601C31.1659 437.61 31.1746 437.616 31.1843 437.621C31.194 437.626 31.2045 437.628 31.2153 437.629Z" fill="#3A2C6D"/>
<path d="M42.9133 445.572L43.6726 446.003C43.7088 446.023 43.7494 446.033 43.7906 446.033C43.8319 446.033 43.8725 446.023 43.9086 446.003L44.627 445.592C44.6885 445.592 44.6988 445.49 44.627 445.459L43.8779 445.028C43.8417 445.008 43.8011 444.998 43.7599 444.998C43.7186 444.998 43.678 445.008 43.6418 445.028L42.9235 445.438C42.862 445.479 42.862 445.541 42.9133 445.572Z" fill="#3A2C6D"/>
<path d="M41.8569 444.956L42.606 445.397C42.6429 445.415 42.6832 445.424 42.724 445.424C42.7648 445.424 42.8051 445.415 42.842 445.397L43.5603 444.977C43.6321 444.977 43.6424 444.874 43.5603 444.843L42.8112 444.412C42.7732 444.392 42.7309 444.382 42.6881 444.382C42.6452 444.382 42.603 444.392 42.5649 444.412L41.8569 444.823C41.8056 444.864 41.7953 444.925 41.8569 444.956Z" fill="#3A2C6D"/>
<path d="M40.7895 444.351L41.5386 444.782C41.5773 444.799 41.6193 444.808 41.6617 444.808C41.7042 444.808 41.7462 444.799 41.7849 444.782L42.4929 444.371C42.5648 444.371 42.575 444.269 42.4929 444.227L41.7438 443.796C41.7069 443.779 41.6666 443.77 41.6258 443.77C41.585 443.77 41.5447 443.779 41.5078 443.796L40.7895 444.207C40.7382 444.227 40.7279 444.31 40.7895 444.351Z" fill="#3A2C6D"/>
<path d="M39.7332 443.735L40.4823 444.166C40.5192 444.183 40.5595 444.192 40.6003 444.192C40.6411 444.192 40.6814 444.183 40.7183 444.166L41.4366 443.755C41.5085 443.755 41.5085 443.653 41.4366 443.612L40.6875 443.181C40.6506 443.163 40.6103 443.154 40.5695 443.154C40.5287 443.154 40.4884 443.163 40.4515 443.181L39.7332 443.591C39.6716 443.632 39.6716 443.694 39.7332 443.735Z" fill="#3A2C6D"/>
<path d="M38.6762 443.119L39.4253 443.56C39.4622 443.578 39.5025 443.587 39.5433 443.587C39.5841 443.587 39.6244 443.578 39.6613 443.56L40.3796 443.14C40.4515 443.14 40.4617 443.037 40.3796 443.006L39.6305 442.575C39.5925 442.556 39.5503 442.545 39.5074 442.545C39.4645 442.545 39.4223 442.556 39.3843 442.575L38.6762 442.986C38.6249 443.027 38.6146 443.088 38.6762 443.119Z" fill="#3A2C6D"/>
<path d="M37.6088 442.514L38.3579 442.945C38.3966 442.962 38.4386 442.971 38.4811 442.971C38.5235 442.971 38.5655 442.962 38.6042 442.945L39.3123 442.534C39.3841 442.534 39.3944 442.432 39.3123 442.391L38.5632 441.96C38.5262 441.942 38.486 441.933 38.4452 441.933C38.4044 441.933 38.3641 441.942 38.3271 441.96L37.6088 442.37C37.5575 442.411 37.5473 442.473 37.6088 442.514Z" fill="#3A2C6D"/>
<path d="M36.552 441.898L37.3011 442.329C37.3381 442.346 37.3784 442.355 37.4192 442.355C37.46 442.355 37.5003 442.346 37.5372 442.329L38.2555 441.919C38.3273 441.919 38.3273 441.816 38.2555 441.775L37.5064 441.344C37.4695 441.327 37.4292 441.318 37.3884 441.318C37.3476 441.318 37.3073 441.327 37.2704 441.344L36.552 441.754C36.4905 441.795 36.4905 441.857 36.552 441.898Z" fill="#3A2C6D"/>
<path d="M35.4838 441.282L36.2329 441.713C36.2691 441.733 36.3097 441.743 36.3509 441.743C36.3922 441.743 36.4328 441.733 36.4689 441.713L37.1873 441.303C37.2591 441.303 37.2694 441.2 37.1873 441.169L36.4382 440.728C36.3995 440.711 36.3575 440.702 36.315 440.702C36.2725 440.702 36.2306 440.711 36.1919 440.728L35.4838 441.149C35.4325 441.149 35.4223 441.252 35.4838 441.282Z" fill="#3A2C6D"/>
<path d="M34.4167 440.667L35.176 441.098C35.2122 441.117 35.2528 441.128 35.2941 441.128C35.3353 441.128 35.3759 441.117 35.4121 441.098L36.1304 440.687C36.192 440.687 36.2022 440.585 36.1304 440.554L35.3813 440.123C35.3451 440.103 35.3045 440.093 35.2633 440.093C35.222 440.093 35.1815 440.103 35.1453 440.123L34.4269 440.533C34.3654 440.574 34.3654 440.636 34.4167 440.667Z" fill="#3A2C6D"/>
<path d="M33.3603 440.051L34.1094 440.492C34.1463 440.51 34.1866 440.519 34.2274 440.519C34.2682 440.519 34.3085 440.51 34.3454 440.492L35.0637 440.071C35.1356 440.071 35.1458 439.969 35.0637 439.938L34.3146 439.507C34.2766 439.487 34.2344 439.477 34.1915 439.477C34.1486 439.477 34.1064 439.487 34.0683 439.507L33.3603 439.918C33.309 439.959 33.2987 440.02 33.3603 440.051Z" fill="#3A2C6D"/>
<path d="M32.2934 439.445L33.0425 439.876C33.0812 439.894 33.1232 439.903 33.1656 439.903C33.2081 439.903 33.2501 439.894 33.2888 439.876L33.9968 439.466C34.0687 439.466 34.0789 439.363 33.9968 439.322L33.2477 438.891C33.2108 438.874 33.1705 438.865 33.1297 438.865C33.0889 438.865 33.0486 438.874 33.0117 438.891L32.2934 439.302C32.2421 439.343 32.2318 439.404 32.2934 439.445Z" fill="#3A2C6D"/>
<path d="M31.2356 438.83L31.9847 439.261C32.0216 439.278 32.0619 439.287 32.1027 439.287C32.1435 439.287 32.1838 439.278 32.2208 439.261L32.9391 438.85C33.0109 438.85 33.0109 438.748 32.9391 438.707L32.19 438.276C32.1531 438.258 32.1128 438.249 32.072 438.249C32.0312 438.249 31.9909 438.258 31.9539 438.276L31.2356 438.686C31.1741 438.727 31.1741 438.789 31.2356 438.83Z" fill="#3A2C6D"/>
<path d="M43.9809 446.187L45.2431 446.916C45.28 446.933 45.3203 446.942 45.3611 446.942C45.4019 446.942 45.4422 446.933 45.4791 446.916L46.1974 446.506C46.2693 446.506 46.2795 446.403 46.1974 446.362L44.9352 445.633C44.8966 445.616 44.8546 445.607 44.8121 445.607C44.7696 445.607 44.7276 445.616 44.6889 445.633L43.9809 446.054C43.9296 446.095 43.9193 446.157 43.9809 446.187Z" fill="#3A2C6D"/>
<path d="M31.1439 437.66L31.893 438.091C31.9546 438.091 31.9546 438.183 31.893 438.224L31.1336 438.655C31.1012 438.675 31.0639 438.686 31.0259 438.686C30.9878 438.686 30.9505 438.675 30.9181 438.655H30.8566C30.8246 438.64 30.7895 438.632 30.7539 438.632C30.7184 438.632 30.6833 438.64 30.6513 438.655L29.8509 439.117C29.8152 439.132 29.7768 439.14 29.738 439.14C29.6992 439.14 29.6608 439.132 29.6252 439.117L29.1531 438.84C29.0915 438.84 29.0915 438.748 29.1531 438.707L29.9022 438.276L30.0561 438.194L30.169 438.122L30.2819 438.06L30.9181 437.691C30.9496 437.666 30.9872 437.65 31.0268 437.645C31.0665 437.639 31.1069 437.645 31.1439 437.66Z" fill="#3A2C6D"/>
<path d="M41.4042 448.26L42.1533 448.691C42.1895 448.711 42.2301 448.721 42.2713 448.721C42.3126 448.721 42.3532 448.711 42.3894 448.691L43.1077 448.281C43.1795 448.281 43.1795 448.178 43.1077 448.147L42.3586 447.716C42.3224 447.697 42.2818 447.686 42.2406 447.686C42.1993 447.686 42.1587 447.697 42.1226 447.716L41.4042 448.127C41.3529 448.168 41.3427 448.23 41.4042 448.26Z" fill="#3A2C6D"/>
<path d="M40.3479 447.655L41.097 448.086C41.134 448.103 41.1743 448.112 41.2151 448.112C41.2559 448.112 41.2961 448.103 41.3331 448.086L42.0514 447.675C42.1232 447.675 42.1232 447.573 42.0514 447.532L41.3023 447.101C41.2654 447.083 41.2251 447.074 41.1843 447.074C41.1435 447.074 41.1032 447.083 41.0663 447.101L40.3479 447.511C40.2864 447.552 40.2864 447.614 40.3479 447.655Z" fill="#3A2C6D"/>
<path d="M39.2814 447.039L40.0408 447.47C40.077 447.49 40.1176 447.5 40.1588 447.5C40.2 447.5 40.2406 447.49 40.2768 447.47L40.9951 447.06C41.0567 447.06 41.067 446.957 40.9951 446.926L40.246 446.495C40.2098 446.476 40.1693 446.465 40.128 446.465C40.0868 446.465 40.0462 446.476 40.01 446.495L39.2917 446.916C39.2301 446.947 39.2301 447.008 39.2814 447.039Z" fill="#3A2C6D"/>
<path d="M30.2709 441.836L31.02 442.267C31.0581 442.287 31.1003 442.298 31.1432 442.298C31.186 442.298 31.2283 442.287 31.2663 442.267L31.9744 441.857C32.0462 441.857 32.0565 441.754 31.9744 441.724L31.2253 441.282C31.1884 441.265 31.1481 441.256 31.1073 441.256C31.0665 441.256 31.0262 441.265 30.9893 441.282L30.2709 441.703C30.2196 441.744 30.2094 441.806 30.2709 441.836Z" fill="#3A2C6D"/>
<path d="M29.2143 441.231L29.9634 441.662C30.0003 441.679 30.0406 441.688 30.0814 441.688C30.1222 441.688 30.1625 441.679 30.1994 441.662L30.9177 441.241C30.9896 441.241 30.9998 441.149 30.9177 441.108L30.1686 440.677C30.1306 440.657 30.0884 440.647 30.0455 440.647C30.0026 440.647 29.9604 440.657 29.9224 440.677L29.2143 441.087C29.163 441.149 29.1527 441.149 29.2143 441.231Z" fill="#3A2C6D"/>
<path d="M28.1586 440.615L28.9077 441.046C28.9439 441.066 28.9845 441.076 29.0257 441.076C29.067 441.076 29.1076 441.066 29.1438 441.046L29.8621 440.636C29.9339 440.636 29.9442 440.533 29.8621 440.502L29.113 440.061C29.0743 440.044 29.0323 440.035 28.9898 440.035C28.9473 440.035 28.9054 440.044 28.8667 440.061L28.1586 440.482C28.1073 440.523 28.0971 440.585 28.1586 440.615Z" fill="#3A2C6D"/>
<path d="M27.1012 440L27.8503 440.441C27.8872 440.458 27.9275 440.467 27.9683 440.467C28.0091 440.467 28.0494 440.458 28.0864 440.441L28.8047 440.02C28.8765 440.02 28.8765 439.918 28.8047 439.887L28.0453 439.456C28.0091 439.436 27.9685 439.426 27.9273 439.426C27.8861 439.426 27.8455 439.436 27.8093 439.456L27.091 439.866C27.0499 439.907 27.0397 439.969 27.1012 440Z" fill="#3A2C6D"/>
<path d="M37.9676 446.28L38.9938 446.875C39.0324 446.893 39.0744 446.902 39.1169 446.902C39.1594 446.902 39.2014 446.893 39.24 446.875L39.9481 446.465C40.0199 446.465 40.0302 446.362 39.9481 446.321L38.9219 445.736C38.8857 445.716 38.8451 445.706 38.8039 445.706C38.7627 445.706 38.7221 445.716 38.6859 445.736L37.9676 446.146C37.906 446.177 37.8957 446.28 37.9676 446.28Z" fill="#3A2C6D"/>
<path d="M31.329 442.452L32.3552 443.037C32.3914 443.057 32.432 443.067 32.4732 443.067C32.5145 443.067 32.555 443.057 32.5912 443.037L33.3095 442.627C33.3814 442.627 33.3916 442.524 33.3095 442.483L32.2834 441.898C32.2465 441.881 32.2062 441.872 32.1654 441.872C32.1246 441.872 32.0843 441.881 32.0474 441.898L31.329 442.309C31.2777 442.35 31.2675 442.411 31.329 442.452Z" fill="#3A2C6D"/>
<path d="M32.662 443.201L37.6492 446.085C37.6861 446.102 37.7264 446.111 37.7672 446.111C37.808 446.111 37.8483 446.102 37.8852 446.085L38.6035 445.674C38.6753 445.674 38.6753 445.572 38.6035 445.531L33.6266 442.657C33.5885 442.638 33.5463 442.627 33.5034 442.627C33.4606 442.627 33.4183 442.638 33.3803 442.657L32.6722 443.068C32.6107 443.119 32.6004 443.201 32.662 443.201Z" fill="#3A2C6D"/>
<path d="M41.6005 446.003L42.3496 446.434C42.3858 446.453 42.4264 446.464 42.4676 446.464C42.5089 446.464 42.5495 446.453 42.5856 446.434L43.304 446.023C43.3758 446.023 43.3861 445.921 43.304 445.88L42.5549 445.449C42.5162 445.431 42.4742 445.422 42.4317 445.422C42.3892 445.422 42.3473 445.431 42.3086 445.449L41.6005 445.859C41.5492 445.9 41.539 445.962 41.6005 446.003Z" fill="#3A2C6D"/>
<path d="M40.5429 445.387L41.292 445.818C41.3282 445.838 41.3688 445.848 41.41 445.848C41.4513 445.848 41.4918 445.838 41.528 445.818L42.2463 445.408C42.3182 445.408 42.3182 445.305 42.2463 445.274L41.4972 444.843C41.461 444.823 41.4205 444.813 41.3792 444.813C41.338 444.813 41.2974 444.823 41.2612 444.843L40.5429 445.254C40.4916 445.254 40.4813 445.356 40.5429 445.387Z" fill="#3A2C6D"/>
<path d="M39.4753 444.782L40.2346 445.213C40.2716 445.23 40.3119 445.239 40.3527 445.239C40.3935 445.239 40.4337 445.23 40.4707 445.213L41.189 444.802C41.2505 444.802 41.2608 444.699 41.189 444.658L40.4399 444.227C40.403 444.21 40.3627 444.201 40.3219 444.201C40.2811 444.201 40.2408 444.21 40.2039 444.227L39.4855 444.638C39.424 444.679 39.424 444.741 39.4753 444.782Z" fill="#3A2C6D"/>
<path d="M38.4194 444.166L39.1685 444.597C39.2047 444.617 39.2452 444.627 39.2865 444.627C39.3277 444.627 39.3683 444.617 39.4045 444.597L40.1228 444.186C40.1946 444.186 40.2049 444.084 40.1228 444.043L39.3737 443.612C39.3368 443.594 39.2965 443.585 39.2557 443.585C39.2149 443.585 39.1746 443.594 39.1377 443.612L38.4194 444.032C38.3681 444.074 38.3578 444.135 38.4194 444.166Z" fill="#3A2C6D"/>
<path d="M37.3618 443.55L38.1109 443.981C38.1471 444.001 38.1876 444.011 38.2289 444.011C38.2701 444.011 38.3107 444.001 38.3469 443.981L39.0652 443.56C39.137 443.56 39.1473 443.458 39.0652 443.427L38.3161 442.996C38.2781 442.976 38.2358 442.966 38.193 442.966C38.1501 442.966 38.1078 442.976 38.0698 442.996L37.3618 443.407C37.3104 443.458 37.3002 443.519 37.3618 443.55Z" fill="#3A2C6D"/>
<path d="M36.3045 442.945L37.0536 443.376C37.0905 443.393 37.1308 443.402 37.1716 443.402C37.2124 443.402 37.2527 443.393 37.2896 443.376L38.0079 442.965C38.0695 442.965 38.0798 442.863 38.0079 442.822L37.2588 442.391C37.2219 442.373 37.1816 442.364 37.1408 442.364C37.1 442.364 37.0597 442.373 37.0228 442.391L36.3045 442.801C36.2429 442.842 36.2429 442.904 36.3045 442.945Z" fill="#3A2C6D"/>
<path d="M35.2372 442.329L35.9863 442.76C36.0244 442.78 36.0666 442.79 36.1095 442.79C36.1524 442.79 36.1946 442.78 36.2326 442.76L36.9407 442.35C37.0125 442.35 37.0228 442.247 36.9407 442.216L36.1916 441.775C36.1547 441.758 36.1144 441.749 36.0736 441.749C36.0328 441.749 35.9925 441.758 35.9556 441.775L35.2372 442.196C35.1859 442.237 35.1757 442.298 35.2372 442.329Z" fill="#3A2C6D"/>
<path d="M34.1806 441.713L34.8887 442.175C34.9256 442.192 34.9659 442.202 35.0067 442.202C35.0475 442.202 35.0878 442.192 35.1247 442.175L35.843 441.754C35.9149 441.754 35.9251 441.652 35.843 441.621L35.0939 441.19C35.0559 441.17 35.0137 441.16 34.9708 441.16C34.9279 441.16 34.8857 441.17 34.8476 441.19L34.1396 441.6C34.1293 441.621 34.1191 441.683 34.1806 441.713Z" fill="#3A2C6D"/>
<path d="M33.1243 441.149L33.8734 441.58C33.9103 441.597 33.9506 441.606 33.9914 441.606C34.0322 441.606 34.0725 441.597 34.1094 441.58L34.8277 441.169C34.8996 441.169 34.8996 441.067 34.8277 441.026L34.0786 440.595C34.0417 440.577 34.0014 440.568 33.9606 440.568C33.9198 440.568 33.8795 440.577 33.8426 440.595L33.1243 441.005C33.0627 441.005 33.0627 441.067 33.1243 441.149Z" fill="#3A2C6D"/>
<path d="M32.0566 440.492L32.8057 440.923C32.8437 440.943 32.886 440.953 32.9288 440.953C32.9717 440.953 33.0139 440.943 33.052 440.923L33.76 440.513C33.8319 440.513 33.8421 440.41 33.76 440.379L33.0109 439.938C32.974 439.921 32.9337 439.912 32.8929 439.912C32.8521 439.912 32.8118 439.921 32.7749 439.938L32.0566 440.359C32.0053 440.4 31.995 440.461 32.0566 440.492Z" fill="#3A2C6D"/>
<path d="M30.9999 439.877L31.749 440.318C31.786 440.335 31.8263 440.344 31.8671 440.344C31.9079 440.344 31.9481 440.335 31.9851 440.318L32.7034 439.897C32.7752 439.897 32.7855 439.794 32.7034 439.764L31.9543 439.333C31.9162 439.313 31.874 439.303 31.8311 439.303C31.7883 439.303 31.746 439.313 31.708 439.333L30.9999 439.743C30.9486 439.784 30.9384 439.846 30.9999 439.877Z" fill="#3A2C6D"/>
<path d="M29.9436 439.271L30.6927 439.702C30.7297 439.719 30.77 439.728 30.8108 439.728C30.8516 439.728 30.8918 439.719 30.9288 439.702L31.6471 439.292C31.7189 439.292 31.7189 439.189 31.6471 439.148L30.898 438.717C30.8611 438.7 30.8208 438.691 30.78 438.691C30.7392 438.691 30.6989 438.7 30.662 438.717L29.9436 439.127C29.8821 439.168 29.8821 439.23 29.9436 439.271Z" fill="#3A2C6D"/>
<path d="M42.6577 446.618L44.2174 447.511C44.2543 447.529 44.2946 447.538 44.3354 447.538C44.3762 447.538 44.4165 447.529 44.4535 447.511L45.1615 447.101C45.2333 447.101 45.2436 446.998 45.1615 446.957L43.612 446.064C43.5758 446.045 43.5352 446.034 43.494 446.034C43.4527 446.034 43.4122 446.045 43.376 446.064L42.6577 446.475C42.6063 446.516 42.5961 446.577 42.6577 446.618Z" fill="#3A2C6D"/>
<path d="M41.0981 446.896L41.8472 447.337C41.8841 447.354 41.9244 447.363 41.9652 447.363C42.006 447.363 42.0463 447.354 42.0832 447.337L42.8015 446.916C42.8733 446.916 42.8836 446.813 42.8015 446.783L42.0524 446.352C42.0162 446.332 41.9756 446.322 41.9344 446.322C41.8931 446.322 41.8526 446.332 41.8164 446.352L41.0981 446.762C41.0467 446.803 41.0467 446.865 41.0981 446.896Z" fill="#3A2C6D"/>
<path d="M40.0195 446.28L40.7686 446.711C40.8055 446.728 40.8458 446.737 40.8866 446.737C40.9274 446.737 40.9677 446.728 41.0047 446.711L41.723 446.3C41.7948 446.3 41.8051 446.198 41.723 446.157L40.9636 445.726C40.9267 445.708 40.8864 445.699 40.8456 445.699C40.8048 445.699 40.7645 445.708 40.7276 445.726L40.0195 446.136C40.0195 446.187 40.0195 446.28 40.0195 446.28Z" fill="#3A2C6D"/>
<path d="M38.9943 445.674L39.7434 446.105C39.7796 446.125 39.8202 446.135 39.8614 446.135C39.9027 446.135 39.9432 446.125 39.9794 446.105L40.6977 445.695C40.7593 445.695 40.7696 445.592 40.6977 445.561L39.9486 445.12C39.9117 445.103 39.8714 445.094 39.8306 445.094C39.7898 445.094 39.7495 445.103 39.7126 445.12L38.9943 445.541C38.9225 445.582 38.9225 445.644 38.9943 445.674Z" fill="#3A2C6D"/>
<path d="M37.9681 445.059L38.7172 445.5C38.7558 445.517 38.7978 445.527 38.8403 445.527C38.8828 445.527 38.9248 445.517 38.9635 445.5L39.6715 445.079C39.7433 445.079 39.7536 444.977 39.6715 444.946L38.9224 444.515C38.8862 444.495 38.8456 444.485 38.8044 444.485C38.7632 444.485 38.7226 444.495 38.6864 444.515L37.9681 444.925C37.8654 444.966 37.8552 445.028 37.9681 445.059Z" fill="#3A2C6D"/>
<path d="M36.8588 444.453L37.6079 444.884C37.6448 444.902 37.6851 444.911 37.7259 444.911C37.7667 444.911 37.807 444.902 37.844 444.884L38.5623 444.474C38.6341 444.474 38.6444 444.371 38.5623 444.33L37.8132 443.899C37.7745 443.881 37.7325 443.872 37.69 443.872C37.6475 443.872 37.6056 443.881 37.5669 443.899L36.8588 444.31C36.8075 444.351 36.7973 444.412 36.8588 444.453Z" fill="#3A2C6D"/>
<path d="M35.803 443.838L36.5521 444.269C36.5883 444.288 36.6289 444.299 36.6701 444.299C36.7114 444.299 36.7519 444.288 36.7881 444.269L37.5065 443.858C37.5783 443.858 37.5783 443.755 37.5065 443.725L36.7574 443.294C36.7212 443.274 36.6806 443.264 36.6393 443.264C36.5981 443.264 36.5575 443.274 36.5213 443.294L35.803 443.704C35.7414 443.745 35.7414 443.807 35.803 443.838Z" fill="#3A2C6D"/>
<path d="M34.7343 443.201L35.4834 443.632C35.5221 443.65 35.5641 443.659 35.6066 443.659C35.649 443.659 35.691 443.65 35.7297 443.632L36.4378 443.222C36.5096 443.222 36.5198 443.119 36.4378 443.078L35.6887 442.647C35.6525 442.627 35.6119 442.617 35.5706 442.617C35.5294 442.617 35.4888 442.627 35.4526 442.647L34.7343 443.058C34.683 443.129 34.6727 443.201 34.7343 443.201Z" fill="#3A2C6D"/>
<path d="M33.6782 442.616L34.4273 443.047C34.4635 443.067 34.504 443.077 34.5453 443.077C34.5865 443.077 34.6271 443.067 34.6633 443.047L35.3816 442.637C35.4534 442.637 35.4637 442.534 35.3816 442.493L34.6325 442.062C34.5938 442.045 34.5518 442.036 34.5094 442.036C34.4669 442.036 34.4249 442.045 34.3862 442.062L33.6782 442.483C33.6269 442.514 33.6166 442.575 33.6782 442.616Z" fill="#3A2C6D"/>
<path d="M32.6208 442.001L33.3699 442.432C33.4066 442.45 33.4469 442.459 33.4879 442.459C33.5288 442.459 33.5692 442.45 33.6059 442.432L34.3242 442.011C34.396 442.011 34.396 441.908 34.3242 441.877L33.5648 441.447C33.5286 441.427 33.4881 441.416 33.4468 441.416C33.4056 441.416 33.365 441.427 33.3288 441.447L32.6105 441.857C32.5695 441.908 32.5592 441.97 32.6208 442.001Z" fill="#3A2C6D"/>
<path d="M31.5642 441.395L32.3133 441.826C32.3503 441.844 32.3906 441.853 32.4314 441.853C32.4722 441.853 32.5125 441.844 32.5494 441.826L33.2677 441.416C33.3293 441.416 33.3395 441.313 33.2677 441.272L32.5186 440.841C32.4817 440.824 32.4414 440.815 32.4006 440.815C32.3598 440.815 32.3195 440.824 32.2826 440.841L31.5642 441.252C31.5027 441.293 31.5027 441.354 31.5642 441.395Z" fill="#3A2C6D"/>
<path d="M30.4965 440.78L31.2456 441.211C31.2837 441.23 31.3259 441.241 31.3688 441.241C31.4116 441.241 31.4539 441.23 31.4919 441.211L32.2 440.8C32.2718 440.8 32.2821 440.697 32.2 440.667L31.4509 440.225C31.4139 440.208 31.3736 440.199 31.3328 440.199C31.292 440.199 31.2518 440.208 31.2148 440.225L30.4965 440.646C30.4452 440.687 30.4349 440.749 30.4965 440.78Z" fill="#3A2C6D"/>
<path d="M28.1279 439.415L30.1802 440.605C30.2171 440.622 30.2574 440.631 30.2982 440.631C30.339 440.631 30.3793 440.622 30.4162 440.605L31.1345 440.184C31.2064 440.184 31.2166 440.082 31.1345 440.051L29.0822 438.861C29.0442 438.841 29.0019 438.83 28.9591 438.83C28.9162 438.83 28.874 438.841 28.8359 438.861L28.1279 439.271C28.0766 439.312 28.0663 439.374 28.1279 439.415Z" fill="#3A2C6D"/>
<path d="M42.1543 447.511L43.1805 448.106C43.2174 448.124 43.2577 448.133 43.2985 448.133C43.3393 448.133 43.3796 448.124 43.4165 448.106L44.1349 447.686C44.2067 447.686 44.2169 447.583 44.1349 447.552L43.1087 446.957C43.0718 446.94 43.0315 446.931 42.9907 446.931C42.9499 446.931 42.9096 446.94 42.8727 446.957L42.1543 447.378C42.0723 447.419 42.0723 447.48 42.1543 447.511Z" fill="#3A2C6D"/>
<path d="M49.9348 445.408L32.9209 435.577V422.237L33.0543 421.929L33.1877 421.867C33.3664 421.762 33.5702 421.706 33.7778 421.706C33.9853 421.706 34.1891 421.762 34.3678 421.867L49.9348 430.846C50.1125 430.952 50.2597 431.103 50.3622 431.282C50.4647 431.462 50.5189 431.665 50.5197 431.872V444.433C50.4069 445.038 50.2837 445.192 49.9348 445.408Z" fill="#E5E5E5"/>
<path d="M48.375 432.437L32.9209 422.678V422.237L33.0543 421.929L33.1877 421.867C33.3664 421.762 33.5702 421.706 33.7778 421.706C33.9853 421.706 34.1891 421.762 34.3678 421.867L49.9348 430.846C50.1263 430.955 50.2802 431.12 50.3761 431.318L48.375 432.437Z" fill="#E5E5E5"/>
<path d="M33.3085 421.9L49.6451 431.33C49.7311 431.381 49.8026 431.453 49.8529 431.539C49.9032 431.625 49.9306 431.723 49.9325 431.823V445.409L32.9185 435.578V422.125C32.9173 422.079 32.9286 422.034 32.9511 421.993C32.9736 421.953 33.0066 421.92 33.0465 421.897C33.0864 421.873 33.1318 421.862 33.1779 421.862C33.224 421.863 33.2691 421.876 33.3085 421.9Z" fill="#DCEEFF"/>
<path d="M33.3085 421.9L49.6451 431.33C49.7311 431.381 49.8026 431.453 49.8529 431.539C49.9032 431.625 49.9306 431.723 49.9325 431.823V445.409L32.9185 435.578V422.125C32.9173 422.079 32.9286 422.034 32.9511 421.993C32.9736 421.953 33.0066 421.92 33.0465 421.897C33.0864 421.873 33.1318 421.862 33.1779 421.862C33.224 421.863 33.2691 421.876 33.3085 421.9Z" fill="#F4F4F4"/>
<path d="M49.9324 445.408V444.915L32.9185 435.095V435.577L49.9324 445.408Z" fill="#DBDBDB"/>
<path d="M33.3599 434.869V422.606L33.5651 422.719V434.766L33.3599 434.869Z" fill="#1E3779"/>
<path d="M33.5645 422.719V434.766L49.388 443.868V431.852L33.5645 422.719Z" fill="#3A2C6D"/>
<path d="M33.3599 434.869L49.3887 444.115V443.868L33.5651 434.766L33.3599 434.869Z" fill="#031F60"/>
<path d="M15.0428 419.774C14.6323 420.8 15.6688 422.011 18.4086 422.852C21.1485 423.694 21.3948 422.606 21.3948 422.606C23.2223 423.425 25.0036 424.343 26.7309 425.356C28.3728 426.505 29.1013 429.841 29.3271 435.464C29.5837 441.97 29.6042 451.616 29.3887 453.289C29.3887 453.289 26.3102 456.367 22.3799 456.028C18.4497 455.69 11.8104 452.221 10.2095 449.533C10.2095 443.827 10.9176 442.893 9.99404 439.61C7.88013 432.088 6.7616 429.009 7.79804 424.002C8.6395 419.897 9.85038 419.374 11.4615 419.415C12.6607 419.471 13.8561 419.591 15.0428 419.774Z" fill="#F4F4F4"/>
<path d="M35.8016 442.452C32.5692 443.273 31.8098 441.231 31.3891 439.548C30.3629 435.443 29.8088 431.77 29.0392 429.451C28.1361 426.721 27.1921 426.28 25.858 425.746C24.3085 425.12 22.9642 426.444 23.4773 429.923C24.1173 433.963 25.1096 437.939 26.443 441.806C26.9149 443.546 27.8266 445.137 29.0905 446.423C30.7631 447.778 33.2773 447.716 37.0741 446.772C39.3009 446.014 41.4629 445.077 43.539 443.971C44.3599 443.591 44.9961 443.335 46.6175 442.596C48.2237 441.894 49.6331 440.809 50.7222 439.435C51.5431 438.235 51.656 437.67 51.4918 437.383C51.3276 437.096 50.8966 437.116 50.4656 437.619C49.8287 438.468 49.0429 439.195 48.1465 439.764C48.1465 439.764 49.1726 438.737 49.7165 438.029C50.2149 437.404 50.6257 436.713 50.9377 435.977C51.2353 435.279 50.6298 434.335 50.168 434.828C49.7063 435.32 49.501 435.854 48.6596 436.88C48.2201 437.415 47.717 437.894 47.1614 438.306C47.6821 437.606 48.1454 436.865 48.5467 436.09C48.9067 435.468 49.0812 434.756 49.0495 434.038C49.0495 433.678 48.5056 433.247 48.0233 433.935C47.5236 434.915 46.903 435.828 46.1762 436.654C45.4374 437.424 44.8114 437.865 44.7909 437.68C44.7704 437.496 45.2424 437.044 45.499 436.162C45.7555 435.279 45.499 434.325 45.0064 434.222C44.5138 434.12 44.6062 434.14 44.2162 434.982C43.6685 435.837 43.1782 436.729 42.7488 437.65C42.4957 438.509 42.0379 439.294 41.4148 439.938C40.6349 440.749 38.8802 441.683 35.8016 442.452Z" fill="#FFCEA9"/>
<path d="M24.6263 425.192C26.7812 424.874 28.3102 425.849 29.2646 429.112C30.2189 432.375 30.8757 435.064 30.8757 435.064C30.0238 436.298 28.7308 437.157 27.2635 437.465C24.6878 438.091 23.754 436.86 23.754 436.86C23.754 436.86 23.0357 433.432 22.5944 431.103C22.1532 428.773 21.9993 425.582 24.6263 425.192Z" fill="#EDEDED"/>
<path d="M25.7361 408.455C25.7361 408.455 29.143 403.273 21.7546 402.216C16.4288 401.457 13.0013 404.874 12.6114 408.589C12.2317 412.139 14.4175 415.823 15.9875 417.29C17.5388 417.685 19.1816 417.488 20.595 416.736C20.6831 415.768 20.7173 414.795 20.6976 413.822C20.6976 413.822 18.1014 408.363 25.7361 408.455Z" fill="#3A2C6D"/>
<path d="M40.5231 474.038V458.471L28.1577 465.685L32.9192 475.526L40.5231 474.038Z" fill="#C4C7D6"/>
<path d="M32.415 459.363L37.1559 456.613L40.5115 458.553L35.5962 461.344L32.415 459.363Z" fill="#D6D8E5"/>
<path d="M232.181 386.341L173.761 352.611C169.554 350.179 170.087 345.941 174.941 343.129L212.786 321.282L286.455 363.806L248.61 385.664C243.746 388.465 236.388 388.814 232.181 386.341Z" fill="#B1B4C4"/>
<path d="M286.455 363.806V361.58L283.058 363.54L286.455 363.806Z" fill="#B1B4C4"/>
<path d="M170.918 348.599V346.331L174.417 347.778L170.918 348.599Z" fill="#B1B4C4"/>
<path d="M232.181 384.114L173.761 350.384C169.554 347.952 170.087 343.704 174.941 340.902L212.786 319.035L286.455 361.569L248.61 383.417C243.746 386.239 236.388 386.536 232.181 384.114Z" fill="#D6D8E5"/>
<path d="M212.991 319.147L203.868 288.896L278.337 331.615L286.454 361.58L212.991 319.147Z" fill="#9EA1AF"/>
<path d="M284.3 362.821L286.455 361.58L283.222 359.055L284.3 362.821Z" fill="#9EA1AF"/>
<path d="M210.642 320.287L201.519 290.035L275.988 332.754L284.3 362.821L210.642 320.287Z" fill="#B1B4C4"/>
<path d="M399.682 413.801L111.421 247.377C107.377 245.037 104.104 238.778 104.104 233.39V10.4136C104.104 5.0262 107.377 2.54286 111.421 4.88253L399.682 171.266C403.725 173.595 406.999 179.855 406.999 185.253V408.311C406.999 413.658 403.725 416.141 399.682 413.801Z" fill="#C4C7D6"/>
<path d="M401.16 416.1L404.362 414.263L402.976 404.792L401.16 416.1Z" fill="#C4C7D6"/>
<path d="M103.58 6.24735L106.72 4.44128L111.235 7.01697C111.235 7.01697 106.423 7.74556 106.31 7.71477C106.197 7.68398 103.58 6.24735 103.58 6.24735Z" fill="#B1B4C4"/>
<path d="M397.035 415.331L108.773 248.906C104.73 246.566 101.446 240.307 101.446 234.919V11.9426C101.446 6.54495 104.73 4.07188 108.773 6.40129L397.025 172.826C401.068 175.165 404.352 181.425 404.352 186.823V409.789C404.362 415.187 401.078 417.66 397.035 415.331Z" fill="#E4E7F2"/>
<path d="M396.532 415.618L108.27 249.193C104.227 246.854 100.954 240.594 100.954 235.207V12.2094C100.954 6.82197 104.227 4.33864 108.27 6.67831L396.532 173.123C400.575 175.453 403.848 181.712 403.848 187.11V410.087C403.848 415.495 400.575 417.957 396.532 415.618Z" fill="#201D38"/>
<path opacity="0.3" d="M399.887 402.062L104.606 231.584L104.76 13.1227C104.76 10.8857 106.33 9.98266 108.27 11.0704L396.532 177.526C397.553 178.191 398.404 179.087 399.013 180.143C399.623 181.199 399.975 182.383 400.041 183.601L399.887 402.062Z" fill="url(#paint0_linear_102_151)"/>
<path d="M283.859 149.798L264.29 138.5V131.44L283.859 142.738V149.798Z" fill="#A298E2"/>
<path d="M329.092 175.935L287.521 151.912V144.852L329.092 168.875V175.935Z" fill="#F4CE2C"/>
<path d="M283.859 172.384L264.29 161.097V154.037L283.859 165.324V172.384Z" fill="#A298E2"/>
<path d="M301.293 182.626L287.521 174.509V167.449L301.293 175.566V182.626Z" fill="#4D3BFF"/>
<path d="M283.859 183.683L264.29 172.384V165.324L283.859 176.623V183.683Z" fill="#A298E2"/>
<path d="M310.754 199.209L287.521 185.797V178.736L310.754 192.149V199.209Z" fill="#4D3BFF"/>
<path d="M283.859 194.971L264.29 183.683V176.623L283.859 187.921V194.971Z" fill="#A298E2"/>
<path d="M348.794 232.385L287.521 197.095V190.035L348.794 225.335V232.385Z" fill="#FF8657"/>
<path d="M283.859 161.097L264.29 149.798V142.738L283.859 154.037V161.097Z" fill="#A298E2"/>
<path d="M363.848 207.326L287.521 163.21V156.15L363.848 200.266V207.326Z" fill="#A298E2"/>
<path d="M283.859 206.269L264.29 194.97V187.91L283.859 199.209V206.269Z" fill="#A298E2"/>
<path d="M353.545 247.213L287.521 208.393V201.333L353.545 240.153V247.213Z" fill="#C33AFC"/>
<path d="M283.859 228.865L264.29 217.567V210.507L283.859 221.805V228.865Z" fill="#A298E2"/>
<path d="M364.556 275.453L287.521 230.979V223.919L364.556 268.393V275.453Z" fill="#A298E2"/>
<path d="M283.859 240.153L264.29 228.865V221.805L283.859 233.093V240.153Z" fill="#A298E2"/>
<path d="M310.754 255.689L287.521 242.267V235.217L310.754 248.629V255.689Z" fill="#C33AFC"/>
<path d="M283.859 251.451L264.29 240.153V233.093L283.859 244.391V251.451Z" fill="#A298E2"/>
<path d="M334.992 281.097L287.521 253.565V246.505L334.992 274.037V281.097Z" fill="#4D3BFF"/>
<path d="M283.859 217.567L264.29 206.269V199.209L283.859 210.507V217.567Z" fill="#A298E2"/>
<path d="M296.08 224.627L287.521 219.681V212.621L296.08 217.567V224.627Z" fill="#4D3BFF"/>
<path d="M283.859 262.749L264.29 251.451V244.391L283.859 255.689V262.749Z" fill="#A298E2"/>
<path d="M318.163 282.513L287.521 264.863V257.803L318.163 275.453V282.513Z" fill="#C33AFC"/>
<path d="M283.859 285.335L264.29 274.037V266.977L283.859 278.275V285.335Z" fill="#A298E2"/>
<path d="M332.232 312.939L287.521 287.449V280.389L332.232 305.879V312.939Z" fill="#FF8657"/>
<path d="M283.859 296.633L264.29 285.335V278.275L283.859 289.573V296.633Z" fill="#A298E2"/>
<path d="M293.104 302.277L287.521 298.747V291.687L293.104 295.217V302.277Z" fill="#A298E2"/>
<path d="M283.859 307.921L264.29 296.633V289.573L283.859 300.861V307.921Z" fill="#A298E2"/>
<path d="M313.165 324.812L287.521 310.045V302.985L313.165 317.752V324.812Z" fill="#F4CE2C"/>
<path d="M283.859 274.037L264.29 262.749V255.679L283.859 266.977V274.037Z" fill="#A298E2"/>
<path d="M323.201 296.633L287.521 276.151V269.101L323.201 289.573V296.633Z" fill="#4D3BFF"/>
<path d="M157.29 79.2082L137.721 67.91V60.85L157.29 72.1481V79.2082Z" fill="#A298E2"/>
<path d="M244.104 129.326L160.954 81.322V74.262L244.104 122.266V129.326Z" fill="#C33AFC"/>
<path d="M157.29 101.794L137.721 90.496V83.4359L157.29 94.7341V101.794Z" fill="#A298E2"/>
<path d="M215.977 135.678L160.954 103.908V96.848L215.977 128.618V135.678Z" fill="#F4CE2C"/>
<path d="M157.29 113.092L137.721 101.794V94.7341L157.29 106.032V113.092Z" fill="#A298E2"/>
<path d="M229.43 154.734L160.954 115.206V108.146L229.43 147.674V154.734Z" fill="#FF8657"/>
<path d="M157.29 124.38L137.721 113.092V106.032L157.29 117.32V124.38Z" fill="#A298E2"/>
<path d="M208.64 154.037L160.954 126.504V119.444L208.64 146.976V154.037Z" fill="#A298E2"/>
<path d="M157.29 90.496L137.721 79.1978V72.1481L157.29 83.4359V90.496Z" fill="#A298E2"/>
<path d="M202.524 116.622L160.954 92.6202V85.5601L202.524 109.562V116.622Z" fill="#4D3BFF"/>
<path d="M157.29 135.678L137.721 124.38V117.32L157.29 128.618V135.678Z" fill="#A298E2"/>
<path d="M185.407 151.912L160.954 137.792V130.732L185.407 144.852V151.912Z" fill="#C33AFC"/>
<path d="M157.29 158.264L137.721 146.966V139.916L157.29 151.204V158.264Z" fill="#A298E2"/>
<path d="M237.988 204.863L160.954 160.389V153.328L237.988 197.803V204.863Z" fill="#F4CE2C"/>
<path d="M157.29 169.563L137.721 158.264V151.204L157.29 162.502V169.563Z" fill="#A298E2"/>
<path d="M184.186 185.088L160.954 171.676V164.616L184.186 178.028V185.088Z" fill="#FF8657"/>
<path d="M157.29 180.861L137.721 169.563V162.502L157.29 173.801V180.861Z" fill="#A298E2"/>
<path d="M229.43 222.503L160.954 182.975V175.915L229.43 215.453V222.503Z" fill="#A298E2"/>
<path d="M157.29 146.977L137.721 135.678V128.618L157.29 139.916V146.977Z" fill="#A298E2"/>
<path d="M225.756 186.505L160.954 149.09V142.03L225.756 179.445V186.505Z" fill="#4D3BFF"/>
<path d="M157.29 192.149L137.721 180.85V173.801L157.29 185.088V192.149Z" fill="#A298E2"/>
<path d="M169.512 199.209L160.954 194.273V187.213L169.512 192.149V199.209Z" fill="#C33AFC"/>
<path d="M157.29 214.745L137.721 203.447V196.387L157.29 207.685V214.745Z" fill="#A298E2"/>
<path d="M176.849 226.033L160.954 216.859V209.799L176.849 218.973V226.033Z" fill="#F4CE2C"/>
<path d="M157.29 226.033L137.721 214.745V207.685L157.29 218.973V226.033Z" fill="#A298E2"/>
<path d="M202.524 252.159L160.954 228.157V221.097L202.524 245.099V252.159Z" fill="#FF8657"/>
<path d="M157.29 237.331L137.721 226.033V218.973L157.29 230.271V237.331Z" fill="#A298E2"/>
<path d="M226.977 277.567L160.954 239.445V232.385L226.977 270.507V277.567Z" fill="#A298E2"/>
<path d="M157.29 203.447L137.721 192.149V185.088L157.29 196.387V203.447Z" fill="#A298E2"/>
<path d="M244.104 253.565L160.954 205.561V198.5L244.104 246.505V253.565Z" fill="#4D3BFF"/>
<path d="M354.748 488.774V422.678L269.052 424.833L269.237 485.787C267.636 493.125 271.699 500.79 281.458 506.424C298.226 516.101 325.409 516.111 342.177 506.424C350.602 501.529 354.789 495.146 354.748 488.774Z" fill="#A6CE28"/>
<path d="M311.812 447.439C335.524 447.439 354.747 436.34 354.747 422.647C354.747 408.955 335.524 397.855 311.812 397.855C288.1 397.855 268.877 408.955 268.877 422.647C268.877 436.34 288.1 447.439 311.812 447.439Z" fill="#BCD64D"/>
<path d="M347.964 422.678C347.964 426.711 344.608 430.949 338.779 434.325C332.417 437.978 323.725 440.236 314.572 440.605C313.659 440.605 312.745 440.667 311.822 440.667C301.663 440.667 291.842 438.347 284.854 434.325C279.025 430.949 275.67 426.711 275.67 422.678C275.67 418.645 279.025 414.407 284.854 411.031C291.842 406.998 301.663 404.679 311.812 404.679C312.735 404.679 313.659 404.679 314.572 404.74C323.725 405.11 332.417 407.367 338.779 411.031C344.608 414.376 347.964 418.573 347.964 422.678Z" fill="#28221C"/>
<path opacity="0.07" d="M347.964 422.678C347.964 426.711 344.609 430.949 338.78 434.325C332.418 437.978 323.726 440.236 314.573 440.605C305.419 440.236 296.717 437.978 290.365 434.325C284.526 430.887 281.171 426.68 281.171 422.678C281.171 418.676 284.516 414.407 290.345 411.031C296.707 407.367 305.409 405.11 314.563 404.74C323.716 405.11 332.408 407.367 338.77 411.031C344.609 414.376 347.964 418.573 347.964 422.678Z" fill="white"/>
<path d="M348.466 453.268L339.354 447.994L334.921 450.559L339.354 453.124V454.807L347.902 459.733L347.645 461.313C348.887 462.339 353.31 470.549 353.31 470.549L353.618 470.261V491.534C353.618 497.116 350.344 495.228 348.949 494.417L339.354 488.876L334.921 491.431L339.354 493.986V495.669L348.949 501.211C349.918 501.792 350.951 502.26 352.027 502.606L351.452 505.274L356.419 502.473H356.491H356.563C358.615 501.262 359.487 498.317 359.487 495.013V472.693C359.528 463.263 352.294 455.864 348.466 453.268Z" fill="#8DA01F"/>
<path d="M344.516 503.807L334.921 498.266V491.431L344.516 496.973C345.911 497.773 349.185 499.671 349.185 494.079V471.862C349.185 466.608 344.433 462.976 343.623 462.401L334.921 457.373V450.559L344.033 455.833C347.871 458.43 355.054 465.839 355.054 475.269V497.506C355.054 503.509 352.315 508.302 344.516 503.807Z" fill="#99B524"/>
<path d="M46.6699 382.585C62.9977 382.585 76.2339 374.94 76.2339 365.51C76.2339 356.079 62.9977 348.434 46.6699 348.434C30.3422 348.434 17.106 356.079 17.106 365.51C17.106 374.94 30.3422 382.585 46.6699 382.585Z" fill="#D6D8E5"/>
<path d="M7.09033 307.141L17.4341 366.69H76.1619L86.2492 307.572L7.09033 307.141Z" fill="#D6D8E5"/>
<path d="M46.6703 329.276C68.552 329.276 86.2907 319.035 86.2907 306.402C86.2907 293.77 68.552 283.529 46.6703 283.529C24.7885 283.529 7.0498 293.77 7.0498 306.402C7.0498 319.035 24.7885 329.276 46.6703 329.276Z" fill="#E4E6EF"/>
<path d="M46.6699 324.227C36.9623 324.227 27.9114 322.093 21.1798 318.203C15.4024 314.879 12.0981 310.569 12.0981 306.402C12.0981 302.236 15.4024 297.926 21.1798 294.601C27.9012 290.712 36.9623 288.578 46.6699 288.578C56.3774 288.578 65.4385 290.712 72.16 294.601C77.9373 297.926 81.2416 302.236 81.2416 306.402C81.2416 310.569 77.9886 314.93 72.16 318.203C65.4385 322.113 56.439 324.227 46.6699 324.227Z" fill="#28221C"/>
<path d="M63.7148 288.383C64.2755 280.688 63.0502 272.967 60.1344 265.824C57.2187 258.68 52.6914 252.307 46.9061 247.203L46.7932 247.09V247.305C41.0025 252.411 36.4712 258.786 33.5535 265.934C30.6358 273.081 29.4108 280.807 29.9743 288.506L7.30615 286.32C16.8701 322.349 46.9061 319.25 46.9061 319.25V319.178C49.1739 319.353 77.1884 320.8 86.3521 286.238L63.7148 288.383Z" fill="#99B524"/>
<path d="M46.9057 319.25C46.9057 319.25 44.8533 291.195 7.21337 272.303C7.18258 272.303 -1.70406 318.911 46.9057 319.25Z" fill="#A6CE28"/>
<path d="M46.6689 319.25C46.6689 319.25 48.7213 291.195 86.3612 272.303C86.3612 272.303 95.2787 318.911 46.6689 319.25Z" fill="#A6CE28"/>
</g>
<defs>
<linearGradient id="paint0_linear_102_151" x1="104.606" y1="206.341" x2="400.041" y2="206.341" gradientUnits="userSpaceOnUse">
<stop offset="0.21" stop-color="white" stop-opacity="0"/>
<stop offset="1" stop-color="white" stop-opacity="0.2"/>
</linearGradient>
<clipPath id="clip0_102_151">
<rect width="407" height="513.086" fill="white"/>
</clipPath>
</defs>
</svg>
